# xmcd
#
# Track frame offsets: 
#        150
#        18084
#        41326
#        57156
#        75521
#        94255
#        109076
#        124830
#        142199
#        160738
#        179359
#        199383
#        217956
#        235859
#        246517
#        261546
#        269364
#        283544
#        296942
#        316595
#
# Disc length: 4491 seconds
#
# Revision: 2
# Processed by: cddbd v1.5.2PL0 Copyright (c) Steve Scherf et al.
# Submitted via: ExactAudioCopy v0.99pb1
#
DISCID=2a118914
DTITLE=Various Artist - Weltberühmt in Österreich CD1-1
DYEAR=2006
DGENRE=Austropop
TTITLE0=Austria 3 - I Am From Austria
TTITLE1=Wolfgang Ambros - Es lebe der Zentralfriedhof
TTITLE2=Rainhard Fendrich - Haben Sie Wien schon bei Nacht geseh'n
TTITLE3=Falco - Vienna Calling
TTITLE4=Mo - Send Me Roses
TTITLE5=EAV - Heiße Nächte in Palermo
TTITLE6=Georg Danzer - So a Dodl mid da Rodl
TTITLE7=Boris Bukowski - Trag meine Liebe wie einen Mantel
TTITLE8=Peter Cornelius - Segel im Wind
TTITLE9=Opus - Flyin' High
TTITLE10=DÖF - Codo
TTITLE11=Ecco - Hexen
TTITLE12=Tom Pettings Herzattacken - Bis zum Himalaya
TTITLE13=Wilfried - Mary Oh Mary
TTITLE14=Helmut Qualtinger - Der g'schupfte Ferdl
TTITLE15=Arik Brauer - Sie hab'n a Haus baut
TTITLE16=Heinrich Walcher - Gummizwerg
TTITLE17=Ostbahn Kurti and Die Chefpartie - Feuer
TTITLE18=Misthaufen - Schabernack
TTITLE19=Kurt Sowinetz - Alle Menschen san ma zwider
EXTD=
EXTT0=
EXTT1=
EXTT2=
EXTT3=
EXTT4=
EXTT5=
EXTT6=
EXTT7=
EXTT8=
EXTT9=
EXTT10=
EXTT11=
EXTT12=
EXTT13=
EXTT14=
EXTT15=
EXTT16=
EXTT17=
EXTT18=
EXTT19=
PLAYORDER=
